<?xml version="1.0" standalone="no"?>
<!DOCTYPE svg PUBLIC "-//W3C//DTD SVG 20010904//EN"
 "http://www.w3.org/TR/2001/REC-SVG-20010904/DTD/svg10.dtd">
<svg version="1.0" xmlns="http://www.w3.org/2000/svg"
 width="426.000000pt" height="211.000000pt" viewBox="0 0 426.000000 211.000000"
 preserveAspectRatio="xMidYMid meet">
<metadata>
Created by potrace 1.15, written by Peter Selinger 2001-2017
</metadata>
<g transform="translate(0.000000,211.000000) scale(0.100000,-0.100000)"
fill="#000000" stroke="none">
<path d="M266 1753 c-3 -4 -6 -323 -6 -710 l0 -703 258 2 257 3 5 170 c5 170
5 170 41 250 99 218 122 271 121 285 -1 8 -37 95 -82 193 -74 166 -96 239 -71
249 9 3 -5 243 -15 259 -6 10 -498 12 -508 2z"/>
<path d="M1237 1753 c-9 -8 -7 -226 3 -318 4 -38 8 -62 8 -52 1 10 6 16 11 13
4 -3 7 -18 5 -33 -2 -16 -1 -22 2 -15 10 21 26 13 20 -10 -3 -13 -3 -17 0 -10
3 6 10 12 16 12 6 0 8 -6 6 -12 -3 -7 4 -21 14 -30 10 -10 18 -15 18 -10 1 4
10 -4 20 -17 12 -14 20 -18 20 -10 0 16 39 -30 40 -46 0 -5 7 -23 16 -40 21
-39 163 -356 253 -565 40 -91 83 -189 96 -218 l25 -52 239 0 c179 0 241 3 249
13 5 6 33 66 62 132 69 159 64 146 184 415 137 308 175 388 175 372 1 -19 71
37 71 57 0 14 2 14 11 1 9 -12 10 -11 6 8 -6 25 3 28 22 10 10 -11 11 -7 6 17
l-6 30 20 -23 20 -23 -2 203 -2 203 -250 0 -250 0 -23 -45 c-12 -25 -48 -106
-80 -180 -33 -74 -92 -212 -133 -307 -41 -94 -77 -169 -81 -165 -4 4 -20 39
-36 77 -17 39 -62 144 -102 235 -39 91 -92 212 -117 270 -25 58 -50 108 -57
112 -14 10 -490 10 -499 1z"/>
<path d="M2915 1748 c-3 -7 -4 -326 -3 -708 l3 -695 253 -3 252 -2 0 51 c0 62
16 62 40 -1 l18 -45 261 -3 c143 -1 261 1 261 6 0 5 -50 123 -111 263 -61 140
-115 268 -121 284 -14 37 -25 45 -65 45 -39 0 -116 18 -160 36 -17 8 -36 14
-41 14 -6 0 -24 14 -41 31 l-31 31 0 298 c0 295 0 299 22 320 12 11 29 18 39
15 10 -3 20 -2 23 4 3 5 45 12 93 16 l87 8 -49 21 c-47 19 -72 21 -388 24
-272 3 -338 1 -342 -10z"/>
</g>
</svg>
